<?xml version="1.0" encoding="UTF-8" standalone="no"?>
<!-- Created with Inkscape (http://www.inkscape.org/) -->

<svg
   xmlns:dc="http://purl.org/dc/elements/1.1/"
   xmlns:cc="http://creativecommons.org/ns#"
   xmlns:rdf="http://www.w3.org/1999/02/22-rdf-syntax-ns#"
   xmlns:svg="http://www.w3.org/2000/svg"
   xmlns="http://www.w3.org/2000/svg"
   xmlns:sodipodi="http://sodipodi.sourceforge.net/DTD/sodipodi-0.dtd"
   xmlns:inkscape="http://www.inkscape.org/namespaces/inkscape"
   width="183.72"
   height="183.71875"
   id="svg2"
   version="1.1"
   inkscape:version="0.48.2 r9819"
   sodipodi:docname="ibeam.svg">
  <defs
     id="defs4" />
  <sodipodi:namedview
     id="base"
     pagecolor="#ffffff"
     bordercolor="#666666"
     borderopacity="1.0"
     inkscape:pageopacity="0.0"
     inkscape:pageshadow="2"
     inkscape:zoom="1.979899"
     inkscape:cx="94.712102"
     inkscape:cy="116.08561"
     inkscape:document-units="px"
     inkscape:current-layer="layer1"
     showgrid="false"
     showguides="true"
     inkscape:guide-bbox="true"
     inkscape:window-width="721"
     inkscape:window-height="454"
     inkscape:window-x="0"
     inkscape:window-y="0"
     inkscape:window-maximized="0"
     fit-margin-top="0"
     fit-margin-left="0"
     fit-margin-right="0"
     fit-margin-bottom="0" />
  <metadata
     id="metadata7">
    <rdf:RDF>
      <cc:Work
         rdf:about="">
        <dc:format>image/svg+xml</dc:format>
        <dc:type
           rdf:resource="http://purl.org/dc/dcmitype/StillImage" />
        <dc:title></dc:title>
      </cc:Work>
    </rdf:RDF>
  </metadata>
  <g
     inkscape:label="Layer 1"
     inkscape:groupmode="layer"
     id="layer1"
     transform="translate(-317.64286,-432.21875)">
    <path
       style="font-size:medium;font-style:normal;font-variant:normal;font-weight:normal;font-stretch:normal;text-indent:0;text-align:start;text-decoration:none;line-height:normal;letter-spacing:normal;word-spacing:normal;text-transform:none;direction:ltr;block-progression:tb;writing-mode:lr-tb;text-anchor:start;baseline-shift:baseline;color:#000000;fill:#000000;fill-opacity:1;stroke:none;stroke-width:6;marker:none;visibility:visible;display:inline;overflow:visible;enable-background:accumulate;font-family:Sans;-inkscape-font-specification:Sans"
       d="M 36.34375 0 L 36.34375 6 L 54.0625 6 C 73.82096 6 89.625 21.80404 89.625 41.5625 L 89.625 122.21875 L 53.0625 122.21875 L 53.0625 128.21875 L 89.625 128.21875 L 89.625 142.15625 C 89.625 161.91471 73.69628 179.93491 54.0625 177.71875 L 36.34375 177.71875 L 36.34375 183.71875 L 54.0625 183.71875 C 71.657544 183.71875 86.678601 172.82808 92.75 157.40625 C 98.824086 172.82252 113.81521 183.71875 131.40625 183.71875 L 149.125 183.71875 L 149.125 177.71875 L 131.40625 177.71875 C 111.77247 179.93491 95.84375 161.91471 95.84375 142.15625 L 95.84375 128.21875 L 131.25 128.21875 L 131.25 122.21875 L 95.84375 122.21875 L 95.84375 41.5625 C 95.84375 21.80404 111.64779 6 131.40625 6 L 149.125 6 L 149.125 0 L 131.40625 0 C 113.81521 0 98.824086 10.896234 92.75 26.3125 C 86.678601 10.890671 71.657544 0 54.0625 0 L 36.34375 0 z "
       transform="translate(317.64286,432.21875)"
       id="rect2985" />
  </g>
</svg>
