<?xml version="1.0" encoding="UTF-8" standalone="no"?>
<!-- Created with Inkscape (http://www.inkscape.org/) -->

<svg
   xmlns:dc="http://purl.org/dc/elements/1.1/"
   xmlns:cc="http://creativecommons.org/ns#"
   xmlns:rdf="http://www.w3.org/1999/02/22-rdf-syntax-ns#"
   xmlns:svg="http://www.w3.org/2000/svg"
   xmlns="http://www.w3.org/2000/svg"
   xmlns:sodipodi="http://sodipodi.sourceforge.net/DTD/sodipodi-0.dtd"
   xmlns:inkscape="http://www.inkscape.org/namespaces/inkscape"
   width="744.09448819"
   height="1052.3622047"
   id="svg2"
   version="1.1"
   inkscape:version="0.48.2 r9819"
   sodipodi:docname="fill-ours.svg">
  <defs
     id="defs4" />
  <sodipodi:namedview
     id="base"
     pagecolor="#ffffff"
     bordercolor="#666666"
     borderopacity="1.0"
     inkscape:pageopacity="0.0"
     inkscape:pageshadow="2"
     inkscape:zoom="0.24748737"
     inkscape:cx="282.62739"
     inkscape:cy="628.19148"
     inkscape:document-units="px"
     inkscape:current-layer="layer1"
     showgrid="false"
     inkscape:window-width="1208"
     inkscape:window-height="713"
     inkscape:window-x="56"
     inkscape:window-y="41"
     inkscape:window-maximized="0" />
  <metadata
     id="metadata7">
    <rdf:RDF>
      <cc:Work
         rdf:about="">
        <dc:format>image/svg+xml</dc:format>
        <dc:type
           rdf:resource="http://purl.org/dc/dcmitype/StillImage" />
        <dc:title></dc:title>
      </cc:Work>
    </rdf:RDF>
  </metadata>
  <g
     inkscape:label="Layer 1"
     inkscape:groupmode="layer"
     id="layer1">
    <path
       style="fill:#f5443c;stroke:#000000;stroke-width:14;stroke-linecap:butt;stroke-linejoin:miter;stroke-opacity:1;fill-opacity:1;stroke-miterlimit:4;stroke-dasharray:none"
       d="m 465.71429,312.36218 c 0,0 17.14285,-11.42857 78.57142,27.14286 61.42858,38.57143 75.71429,65.71429 82.85715,90 C 634.28571,453.79075 630,632.36218 630,632.36218 L 570,696.6479 C 537.14286,730.93361 541.42857,452.36218 541.42857,452.36218 l -100,-70 z"
       id="path3835"
       inkscape:connector-curvature="0" />
    <rect
       style="fill:#ffffff;fill-opacity:1;stroke:#000000;stroke-width:28;stroke-linejoin:round;stroke-miterlimit:4;stroke-opacity:1;stroke-dasharray:none"
       id="rect3820"
       width="285.71429"
       height="380.00003"
       x="-721.07935"
       y="-277.22876"
       ry="62.857143"
       transform="matrix(-0.70710678,-0.70710678,0.70710678,-0.70710678,0,0)" />
    <path
       sodipodi:type="arc"
       style="fill:#ffffff;fill-opacity:1;stroke:#000000;stroke-width:16;stroke-linejoin:round;stroke-miterlimit:4;stroke-opacity:1;stroke-dasharray:none"
       id="path3833"
       sodipodi:cx="394.28571"
       sodipodi:cy="420.93362"
       sodipodi:rx="41.42857"
       sodipodi:ry="41.42857"
       d="m 435.71428,420.93362 a 41.42857,41.42857 0 1 1 -82.85714,0 41.42857,41.42857 0 1 1 82.85714,0 z" />
    <path
       style="fill:none;stroke:#000000;stroke-width:28;stroke-linejoin:round;stroke-miterlimit:4;stroke-opacity:1;stroke-dasharray:none"
       d="m 257.1592,351.24441 c -1.6483,-73.33563 -0.0163,-2.39631 -0.0163,-2.88219 l 0,-101.71431 c 0,-34.82285 28.03429,-62.85714 62.85715,-62.85714 l 0,0 11.42855,0 c 34.82285,0 62.85714,28.03429 62.85714,62.85714 0,0 0,151.14288 0,171.14288 0,18.08555 -0.005,-0.45813 -0.0163,0.025"
       id="path3831"
       inkscape:connector-curvature="0"
       sodipodi:nodetypes="cssccsssc" />
  </g>
</svg>
